<mxfile host="app.diagrams.net" agent="Mozilla/5.0 (Windows NT 10.0; Win64; x64) AppleWebKit/537.36 (KHTML, like Gecko) Chrome/131.0.0.0 Safari/537.36" version="26.0.3">
  <diagram name="Page-1" id="4mpJBRFDPYmqt8pY7hoR">
    <mxGraphModel dx="1050" dy="557" grid="0" gridSize="10" guides="1" tooltips="1" connect="1" arrows="1" fold="1" page="1" pageScale="1" pageWidth="850" pageHeight="1100" background="#ffffff" math="0" shadow="0">
      <root>
        <mxCell id="0" />
        <mxCell id="1" parent="0" />
        <mxCell id="ONgfHoZJgdAY3R8Hak69-1" value="" style="verticalLabelPosition=bottom;html=1;verticalAlign=top;align=center;strokeColor=none;fillColor=#00BEF2;shape=mxgraph.azure.user;" vertex="1" parent="1">
          <mxGeometry x="60" y="150" width="47.5" height="50" as="geometry" />
        </mxCell>
        <mxCell id="ONgfHoZJgdAY3R8Hak69-2" value="" style="verticalLabelPosition=bottom;html=1;verticalAlign=top;align=center;strokeColor=none;fillColor=#00BEF2;shape=mxgraph.azure.user;" vertex="1" parent="1">
          <mxGeometry x="60" y="330" width="47.5" height="50" as="geometry" />
        </mxCell>
        <mxCell id="ONgfHoZJgdAY3R8Hak69-4" value="" style="verticalLabelPosition=bottom;html=1;verticalAlign=top;align=center;strokeColor=none;fillColor=#00BEF2;shape=mxgraph.azure.user;" vertex="1" parent="1">
          <mxGeometry x="30" y="240" width="47.5" height="50" as="geometry" />
        </mxCell>
        <mxCell id="ONgfHoZJgdAY3R8Hak69-80" style="edgeStyle=orthogonalEdgeStyle;rounded=0;orthogonalLoop=1;jettySize=auto;html=1;exitX=1;exitY=0.25;exitDx=0;exitDy=0;entryX=0.5;entryY=0;entryDx=0;entryDy=0;" edge="1" parent="1" source="ONgfHoZJgdAY3R8Hak69-9" target="ONgfHoZJgdAY3R8Hak69-19">
          <mxGeometry relative="1" as="geometry" />
        </mxCell>
        <mxCell id="ONgfHoZJgdAY3R8Hak69-9" value="" style="rounded=1;whiteSpace=wrap;html=1;" vertex="1" parent="1">
          <mxGeometry x="300" y="145" width="100" height="55" as="geometry" />
        </mxCell>
        <mxCell id="ONgfHoZJgdAY3R8Hak69-10" value="Server" style="text;html=1;align=center;verticalAlign=middle;whiteSpace=wrap;rounded=0;" vertex="1" parent="1">
          <mxGeometry x="320" y="157.5" width="60" height="30" as="geometry" />
        </mxCell>
        <mxCell id="ONgfHoZJgdAY3R8Hak69-81" style="edgeStyle=orthogonalEdgeStyle;rounded=0;orthogonalLoop=1;jettySize=auto;html=1;exitX=1;exitY=0.5;exitDx=0;exitDy=0;entryX=0;entryY=0.5;entryDx=0;entryDy=0;" edge="1" parent="1" source="ONgfHoZJgdAY3R8Hak69-14" target="ONgfHoZJgdAY3R8Hak69-19">
          <mxGeometry relative="1" as="geometry" />
        </mxCell>
        <mxCell id="ONgfHoZJgdAY3R8Hak69-14" value="" style="rounded=1;whiteSpace=wrap;html=1;" vertex="1" parent="1">
          <mxGeometry x="300" y="237.5" width="100" height="55" as="geometry" />
        </mxCell>
        <mxCell id="ONgfHoZJgdAY3R8Hak69-15" value="Server" style="text;html=1;align=center;verticalAlign=middle;whiteSpace=wrap;rounded=0;" vertex="1" parent="1">
          <mxGeometry x="320" y="250" width="60" height="30" as="geometry" />
        </mxCell>
        <mxCell id="ONgfHoZJgdAY3R8Hak69-82" style="edgeStyle=orthogonalEdgeStyle;rounded=0;orthogonalLoop=1;jettySize=auto;html=1;exitX=1;exitY=0;exitDx=0;exitDy=0;" edge="1" parent="1" source="ONgfHoZJgdAY3R8Hak69-16" target="ONgfHoZJgdAY3R8Hak69-19">
          <mxGeometry relative="1" as="geometry" />
        </mxCell>
        <mxCell id="ONgfHoZJgdAY3R8Hak69-16" value="" style="rounded=1;whiteSpace=wrap;html=1;" vertex="1" parent="1">
          <mxGeometry x="300" y="330" width="100" height="55" as="geometry" />
        </mxCell>
        <mxCell id="ONgfHoZJgdAY3R8Hak69-17" value="Server" style="text;html=1;align=center;verticalAlign=middle;whiteSpace=wrap;rounded=0;" vertex="1" parent="1">
          <mxGeometry x="320" y="342.5" width="60" height="30" as="geometry" />
        </mxCell>
        <mxCell id="ONgfHoZJgdAY3R8Hak69-18" value="" style="shape=cylinder3;whiteSpace=wrap;html=1;boundedLbl=1;backgroundOutline=1;size=15;" vertex="1" parent="1">
          <mxGeometry x="700" y="187.5" width="90" height="120" as="geometry" />
        </mxCell>
        <mxCell id="ONgfHoZJgdAY3R8Hak69-19" value="" style="ellipse;whiteSpace=wrap;html=1;" vertex="1" parent="1">
          <mxGeometry x="490" y="210" width="120" height="80" as="geometry" />
        </mxCell>
        <mxCell id="ONgfHoZJgdAY3R8Hak69-20" value="FFmpeg" style="text;html=1;align=center;verticalAlign=middle;whiteSpace=wrap;rounded=0;" vertex="1" parent="1">
          <mxGeometry x="520" y="235" width="60" height="30" as="geometry" />
        </mxCell>
        <mxCell id="ONgfHoZJgdAY3R8Hak69-21" value="Database" style="text;html=1;align=center;verticalAlign=middle;whiteSpace=wrap;rounded=0;" vertex="1" parent="1">
          <mxGeometry x="715" y="240" width="60" height="30" as="geometry" />
        </mxCell>
        <mxCell id="ONgfHoZJgdAY3R8Hak69-29" value="" style="rounded=0;whiteSpace=wrap;html=1;" vertex="1" parent="1">
          <mxGeometry x="730" y="350" width="110" height="30" as="geometry" />
        </mxCell>
        <mxCell id="ONgfHoZJgdAY3R8Hak69-30" value="Segment_1" style="text;html=1;align=center;verticalAlign=middle;whiteSpace=wrap;rounded=0;" vertex="1" parent="1">
          <mxGeometry x="755" y="350" width="60" height="30" as="geometry" />
        </mxCell>
        <mxCell id="ONgfHoZJgdAY3R8Hak69-31" value="" style="rounded=0;whiteSpace=wrap;html=1;" vertex="1" parent="1">
          <mxGeometry x="730" y="380" width="110" height="30" as="geometry" />
        </mxCell>
        <mxCell id="ONgfHoZJgdAY3R8Hak69-32" value="Segment_2" style="text;html=1;align=center;verticalAlign=middle;whiteSpace=wrap;rounded=0;" vertex="1" parent="1">
          <mxGeometry x="755" y="380" width="60" height="30" as="geometry" />
        </mxCell>
        <mxCell id="ONgfHoZJgdAY3R8Hak69-33" value="" style="rounded=0;whiteSpace=wrap;html=1;" vertex="1" parent="1">
          <mxGeometry x="730" y="410" width="110" height="30" as="geometry" />
        </mxCell>
        <mxCell id="ONgfHoZJgdAY3R8Hak69-34" value="Segment_3" style="text;html=1;align=center;verticalAlign=middle;whiteSpace=wrap;rounded=0;" vertex="1" parent="1">
          <mxGeometry x="755" y="410" width="60" height="30" as="geometry" />
        </mxCell>
        <mxCell id="ONgfHoZJgdAY3R8Hak69-35" value="" style="rounded=0;whiteSpace=wrap;html=1;" vertex="1" parent="1">
          <mxGeometry x="595" y="350" width="110" height="30" as="geometry" />
        </mxCell>
        <mxCell id="ONgfHoZJgdAY3R8Hak69-36" value="Segment_1" style="text;html=1;align=center;verticalAlign=middle;whiteSpace=wrap;rounded=0;" vertex="1" parent="1">
          <mxGeometry x="620" y="350" width="60" height="30" as="geometry" />
        </mxCell>
        <mxCell id="ONgfHoZJgdAY3R8Hak69-37" value="" style="rounded=0;whiteSpace=wrap;html=1;" vertex="1" parent="1">
          <mxGeometry x="595" y="380" width="110" height="30" as="geometry" />
        </mxCell>
        <mxCell id="ONgfHoZJgdAY3R8Hak69-38" value="Segment_2" style="text;html=1;align=center;verticalAlign=middle;whiteSpace=wrap;rounded=0;" vertex="1" parent="1">
          <mxGeometry x="620" y="380" width="60" height="30" as="geometry" />
        </mxCell>
        <mxCell id="ONgfHoZJgdAY3R8Hak69-39" value="" style="rounded=0;whiteSpace=wrap;html=1;" vertex="1" parent="1">
          <mxGeometry x="595" y="410" width="110" height="30" as="geometry" />
        </mxCell>
        <mxCell id="ONgfHoZJgdAY3R8Hak69-40" value="Segment_3" style="text;html=1;align=center;verticalAlign=middle;whiteSpace=wrap;rounded=0;" vertex="1" parent="1">
          <mxGeometry x="620" y="410" width="60" height="30" as="geometry" />
        </mxCell>
        <mxCell id="ONgfHoZJgdAY3R8Hak69-47" value="" style="rounded=0;whiteSpace=wrap;html=1;" vertex="1" parent="1">
          <mxGeometry x="460" y="350" width="110" height="30" as="geometry" />
        </mxCell>
        <mxCell id="ONgfHoZJgdAY3R8Hak69-48" value="Segment_1" style="text;html=1;align=center;verticalAlign=middle;whiteSpace=wrap;rounded=0;" vertex="1" parent="1">
          <mxGeometry x="485" y="350" width="60" height="30" as="geometry" />
        </mxCell>
        <mxCell id="ONgfHoZJgdAY3R8Hak69-49" value="" style="rounded=0;whiteSpace=wrap;html=1;" vertex="1" parent="1">
          <mxGeometry x="460" y="380" width="110" height="30" as="geometry" />
        </mxCell>
        <mxCell id="ONgfHoZJgdAY3R8Hak69-50" value="Segment_2" style="text;html=1;align=center;verticalAlign=middle;whiteSpace=wrap;rounded=0;" vertex="1" parent="1">
          <mxGeometry x="485" y="380" width="60" height="30" as="geometry" />
        </mxCell>
        <mxCell id="ONgfHoZJgdAY3R8Hak69-51" value="" style="rounded=0;whiteSpace=wrap;html=1;" vertex="1" parent="1">
          <mxGeometry x="460" y="410" width="110" height="30" as="geometry" />
        </mxCell>
        <mxCell id="ONgfHoZJgdAY3R8Hak69-52" value="Segment_3" style="text;html=1;align=center;verticalAlign=middle;whiteSpace=wrap;rounded=0;" vertex="1" parent="1">
          <mxGeometry x="485" y="410" width="60" height="30" as="geometry" />
        </mxCell>
        <mxCell id="ONgfHoZJgdAY3R8Hak69-54" value="240p" style="text;html=1;align=center;verticalAlign=middle;whiteSpace=wrap;rounded=0;" vertex="1" parent="1">
          <mxGeometry x="480" y="312.5" width="60" height="30" as="geometry" />
        </mxCell>
        <mxCell id="ONgfHoZJgdAY3R8Hak69-55" value="480p" style="text;html=1;align=center;verticalAlign=middle;whiteSpace=wrap;rounded=0;" vertex="1" parent="1">
          <mxGeometry x="620" y="312.5" width="60" height="30" as="geometry" />
        </mxCell>
        <mxCell id="ONgfHoZJgdAY3R8Hak69-56" value="720p" style="text;html=1;align=center;verticalAlign=middle;whiteSpace=wrap;rounded=0;" vertex="1" parent="1">
          <mxGeometry x="755" y="312.5" width="60" height="30" as="geometry" />
        </mxCell>
        <mxCell id="ONgfHoZJgdAY3R8Hak69-58" value="&lt;h1 style=&quot;margin-top: 0px;&quot;&gt;Adaptive Bitrate streaming&lt;/h1&gt;&lt;div&gt;&lt;br&gt;&lt;/div&gt;" style="text;html=1;whiteSpace=wrap;overflow=hidden;rounded=0;" vertex="1" parent="1">
          <mxGeometry x="255" y="70" width="340" height="50" as="geometry" />
        </mxCell>
        <mxCell id="ONgfHoZJgdAY3R8Hak69-77" style="edgeStyle=orthogonalEdgeStyle;rounded=0;orthogonalLoop=1;jettySize=auto;html=1;exitX=0.75;exitY=0;exitDx=0;exitDy=0;exitPerimeter=0;entryX=0;entryY=0.25;entryDx=0;entryDy=0;" edge="1" parent="1" source="ONgfHoZJgdAY3R8Hak69-69" target="ONgfHoZJgdAY3R8Hak69-9">
          <mxGeometry relative="1" as="geometry" />
        </mxCell>
        <mxCell id="ONgfHoZJgdAY3R8Hak69-78" style="edgeStyle=orthogonalEdgeStyle;rounded=0;orthogonalLoop=1;jettySize=auto;html=1;exitX=1;exitY=0.25;exitDx=0;exitDy=0;exitPerimeter=0;entryX=0;entryY=0.25;entryDx=0;entryDy=0;" edge="1" parent="1" source="ONgfHoZJgdAY3R8Hak69-69" target="ONgfHoZJgdAY3R8Hak69-14">
          <mxGeometry relative="1" as="geometry" />
        </mxCell>
        <mxCell id="ONgfHoZJgdAY3R8Hak69-79" style="edgeStyle=orthogonalEdgeStyle;rounded=0;orthogonalLoop=1;jettySize=auto;html=1;exitX=0.75;exitY=1;exitDx=0;exitDy=0;exitPerimeter=0;entryX=0;entryY=0.5;entryDx=0;entryDy=0;" edge="1" parent="1" source="ONgfHoZJgdAY3R8Hak69-69" target="ONgfHoZJgdAY3R8Hak69-16">
          <mxGeometry relative="1" as="geometry" />
        </mxCell>
        <mxCell id="ONgfHoZJgdAY3R8Hak69-69" value="" style="sketch=0;points=[[0.015,0.015,0],[0.985,0.015,0],[0.985,0.985,0],[0.015,0.985,0],[0.25,0,0],[0.5,0,0],[0.75,0,0],[1,0.25,0],[1,0.5,0],[1,0.75,0],[0.75,1,0],[0.5,1,0],[0.25,1,0],[0,0.75,0],[0,0.5,0],[0,0.25,0]];verticalLabelPosition=bottom;html=1;verticalAlign=top;aspect=fixed;align=center;pointerEvents=1;shape=mxgraph.cisco19.rect;prIcon=load_balancer;fillColor=#FAFAFA;strokeColor=#005073;" vertex="1" parent="1">
          <mxGeometry x="170" y="240" width="64" height="50" as="geometry" />
        </mxCell>
        <mxCell id="ONgfHoZJgdAY3R8Hak69-71" style="edgeStyle=orthogonalEdgeStyle;rounded=0;orthogonalLoop=1;jettySize=auto;html=1;exitX=0.84;exitY=0.28;exitDx=0;exitDy=0;exitPerimeter=0;entryX=0;entryY=0.5;entryDx=0;entryDy=0;entryPerimeter=0;" edge="1" parent="1" source="ONgfHoZJgdAY3R8Hak69-4" target="ONgfHoZJgdAY3R8Hak69-69">
          <mxGeometry relative="1" as="geometry" />
        </mxCell>
        <mxCell id="ONgfHoZJgdAY3R8Hak69-72" style="edgeStyle=orthogonalEdgeStyle;rounded=0;orthogonalLoop=1;jettySize=auto;html=1;exitX=0.87;exitY=0.65;exitDx=0;exitDy=0;exitPerimeter=0;entryX=0.25;entryY=1;entryDx=0;entryDy=0;entryPerimeter=0;" edge="1" parent="1" source="ONgfHoZJgdAY3R8Hak69-2" target="ONgfHoZJgdAY3R8Hak69-69">
          <mxGeometry relative="1" as="geometry" />
        </mxCell>
        <mxCell id="ONgfHoZJgdAY3R8Hak69-73" style="edgeStyle=orthogonalEdgeStyle;rounded=0;orthogonalLoop=1;jettySize=auto;html=1;exitX=0.84;exitY=0.28;exitDx=0;exitDy=0;exitPerimeter=0;entryX=0.25;entryY=0;entryDx=0;entryDy=0;entryPerimeter=0;" edge="1" parent="1" source="ONgfHoZJgdAY3R8Hak69-1" target="ONgfHoZJgdAY3R8Hak69-69">
          <mxGeometry relative="1" as="geometry" />
        </mxCell>
        <mxCell id="ONgfHoZJgdAY3R8Hak69-83" style="edgeStyle=orthogonalEdgeStyle;rounded=0;orthogonalLoop=1;jettySize=auto;html=1;exitX=1;exitY=0.5;exitDx=0;exitDy=0;entryX=0;entryY=0.5;entryDx=0;entryDy=0;entryPerimeter=0;" edge="1" parent="1" source="ONgfHoZJgdAY3R8Hak69-19" target="ONgfHoZJgdAY3R8Hak69-18">
          <mxGeometry relative="1" as="geometry" />
        </mxCell>
        <mxCell id="ONgfHoZJgdAY3R8Hak69-84" value="Designed by Siddhesh Jadhav" style="text;html=1;align=center;verticalAlign=middle;whiteSpace=wrap;rounded=0;" vertex="1" parent="1">
          <mxGeometry x="588" y="120" width="171" height="16" as="geometry" />
        </mxCell>
      </root>
    </mxGraphModel>
  </diagram>
</mxfile>
